<svg width="24" height="20" viewBox="0 0 24 20" fill="none" xmlns="http://www.w3.org/2000/svg">
<path fill-rule="evenodd" clip-rule="evenodd" d="M0 17.3797C0 18.2081 0.671573 18.8797 1.5 18.8797C2.32843 18.8797 3 18.2081 3 17.3797V4.01334H16.6032C17.6295 4.01334 18.4615 3.18135 18.4615 2.15503C18.4615 1.12872 17.6295 0.296731 16.6032 0.296731H1.8583C1.79473 0.296731 1.73191 0.299923 1.66998 0.306155C1.61419 0.299863 1.55747 0.296631 1.5 0.296631C0.671573 0.296631 0 0.968205 0 1.79663V2.15503V17.3797ZM5.67447 7.72986C4.57974 7.72986 3.69229 8.61731 3.69229 9.71204C3.69229 10.8068 4.57974 11.6942 5.67447 11.6942H20.1716C21.2664 11.6942 22.1538 10.8068 22.1538 9.71204C22.1538 8.61731 21.2664 7.72986 20.1716 7.72986H5.67447ZM5.53857 17.2691C5.53857 16.2428 6.37056 15.4108 7.39688 15.4108H22.1418C23.1681 15.4108 24.0001 16.2428 24.0001 17.2691C24.0001 18.2954 23.1681 19.1274 22.1418 19.1274H7.39688C6.37056 19.1274 5.53857 18.2954 5.53857 17.2691Z" fill="#B01219"/>
</svg>
