<svg width="270" height="225" viewBox="0 0 270 225" fill="none" xmlns="http://www.w3.org/2000/svg">
<g clip-path="url(#clip0_129_1149)">
<path fill-rule="evenodd" clip-rule="evenodd" d="M0 198.762C0 208.082 7.5552 215.637 16.875 215.637C26.1948 215.637 33.75 208.082 33.75 198.762V48.391H186.786C198.332 48.391 207.692 39.0311 207.692 27.4852C207.692 15.9392 198.332 6.57925 186.786 6.57925H20.9059C20.1907 6.57925 19.484 6.61516 18.7873 6.68527C18.1596 6.61449 17.5215 6.57812 16.875 6.57812C7.5552 6.57812 0 14.1333 0 23.4532V27.4852V198.762ZM63.8378 90.2019C51.5221 90.2019 41.5383 100.186 41.5383 112.501C41.5383 124.818 51.5221 134.801 63.8378 134.801H226.93C239.247 134.801 249.23 124.818 249.23 112.501C249.23 100.186 239.247 90.2019 226.93 90.2019H63.8378ZM62.3089 197.519C62.3089 185.972 71.6688 176.612 83.2149 176.612H249.095C260.641 176.612 270.001 185.972 270.001 197.519C270.001 209.064 260.641 218.424 249.095 218.424H83.2149C71.6688 218.424 62.3089 209.064 62.3089 197.519Z" fill="#B01219"/>
</g>
<defs>
<clipPath id="clip0_129_1149">
<rect width="270" height="225" fill="white"/>
</clipPath>
</defs>
</svg>
