<svg width="100" height="100" viewBox="0 0 100 100" fill="none" xmlns="http://www.w3.org/2000/svg">
<path fill-rule="evenodd" clip-rule="evenodd" d="M73.0051 19.8126C75.8311 20.8874 77.7085 23.6667 77.7085 26.7757V70.6616C77.7085 73.7705 75.8311 76.5499 73.0051 77.6247C69.1699 79.0833 64.9567 79.0833 61.1216 77.6247C58.2956 76.5499 56.4182 73.7705 56.4182 70.6616L56.4182 26.7757C56.4182 23.6667 58.2956 20.8874 61.1216 19.8126C64.9567 18.354 69.1699 18.354 73.0051 19.8126ZM71.902 26.7757C71.902 26.178 71.5411 25.6436 70.9978 25.437C68.4583 24.4711 65.6684 24.4711 63.1289 25.437C62.5856 25.6436 62.2246 26.178 62.2246 26.7757L62.2246 70.6616C62.2246 71.2593 62.5856 71.7936 63.1289 72.0003C65.6684 72.9661 68.4583 72.9661 70.9978 72.0003C71.5411 71.7936 71.902 71.2593 71.902 70.6616V26.7757Z" fill="white"/>
<path fill-rule="evenodd" clip-rule="evenodd" d="M34.2954 19.8126C37.1214 20.8874 38.9988 23.6667 38.9988 26.7757L38.9988 70.6616C38.9988 73.7705 37.1214 76.5499 34.2954 77.6247C30.4603 79.0833 26.2471 79.0833 22.4119 77.6247C19.5859 76.5499 17.7085 73.7705 17.7085 70.6616L17.7085 26.7757C17.7085 23.6667 19.5859 20.8874 22.4119 19.8126C26.2471 18.354 30.4603 18.354 34.2954 19.8126ZM33.1924 26.7757C33.1924 26.178 32.8314 25.6436 32.2881 25.437C29.7486 24.4711 26.9587 24.4711 24.4192 25.437C23.8759 25.6436 23.515 26.178 23.515 26.7757L23.5149 70.6616C23.5149 71.2593 23.8759 71.7936 24.4192 72.0003C26.9587 72.9661 29.7486 72.9661 32.2881 72.0003C32.8314 71.7936 33.1924 71.2593 33.1924 70.6616L33.1924 26.7757Z" fill="white"/>
</svg>
